<svg width="136" height="48" xmlns="http://www.w3.org/2000/svg"><path d="M62.347 5.875c-6.66.364-13.325.692-19.99 1.01l-2.104.097c2.4-.107 2.732-.123.997-.046-1.755.072-3.51.15-5.264.223-3.51.145-7.02.281-10.531.414-6.477.243-11.872.953-16.927 4.707-4.295 3.188-7.483 8.687-7.832 13.673-1.189 17.003 8.877 22.139 21.96 21.648 30.174-1.133 63.202-.945 93.28-3.073 12.209-.865 21.886-12.153 18.887-31.946-2.824-18.637-14.643-10.26-29-6.527-16.973 4.092-29.805-.926-43.476-.18z" fill="#FFE061" fill-rule="evenodd"/></svg>