<svg width="120" height="44" xmlns="http://www.w3.org/2000/svg"><path d="M63.24 40.97c5.865.378 11.729.787 17.592 1.205l1.85.136c-2.11-.158-2.402-.179-.876-.064 1.543.12 3.086.235 4.627.356 3.085.24 6.17.489 9.255.74 5.69.467 10.486.398 15.327-2.438 4.112-2.41 7.516-7.011 8.38-11.453 2.943-15.144-5.283-20.82-16.777-21.76C76.108 5.522 47.25 1.864 20.714.598 9.941.084.216 9.2.622 27.29c.382 17.036 11.654 10.761 24.626 8.926 15.298-1.882 25.956 3.98 37.993 4.754z" fill="#FFE061" fill-rule="evenodd"/></svg>